<?xml version="1.0" encoding="utf-8"?>
<!-- Generator: Adobe Illustrator 24.3.0, SVG Export Plug-In . SVG Version: 6.00 Build 0)  -->
<svg version="1.1" id="레이어_1" xmlns="http://www.w3.org/2000/svg" xmlns:xlink="http://www.w3.org/1999/xlink" x="0px"
	 y="0px" viewBox="0 0 300 200" style="enable-background:new 0 0 300 200;" xml:space="preserve">
<style type="text/css">
	.st0{fill:none;stroke:#EA0029;stroke-width:3;stroke-linecap:round;stroke-linejoin:round;stroke-miterlimit:10;}
	.st1{fill:#EA0029;}
	.st2{fill:#FFFFFF;}
	.st3{fill:#B3B3B3;}
	.st4{opacity:0.5;fill:#878B99;}
</style>
<g>
	<line class="st0" x1="14" y1="11.5" x2="21" y2="18.5"/>
	<line class="st0" x1="28" y1="11.5" x2="21" y2="18.5"/>
</g>
<g>
	<line class="st0" x1="64" y1="18.5" x2="71" y2="11.5"/>
	<line class="st0" x1="78" y1="18.5" x2="71" y2="11.5"/>
</g>
<g>
	<rect x="280" y="50" class="st1" width="20" height="20"/>
	<polygon class="st2" points="288,65 288,65 284,61 285.4,59.6 288,62.2 294.6,55.6 296,57 	"/>
</g>
<g>
	<g>
		<path class="st3" d="M299.6,0.4v19.2h-19.2V0.4H299.6 M300,0h-20v20h20V0L300,0z"/>
	</g>
	<polygon class="st4" points="288,15 288,15 284,11 285.4,9.6 288,12.2 294.6,5.6 296,7 	"/>
</g>
</svg>
